<svg width="13" height="20" viewBox="0 0 13 20" fill="none" xmlns="http://www.w3.org/2000/svg">
<path id="Vector" d="M6.5 0.5C2.91597 0.5 0 3.34121 0 6.83335C0 7.88169 0.269 8.92112 0.780379 9.84306L6.14455 19.2959C6.21596 19.4219 6.35204 19.5 6.5 19.5C6.64796 19.5 6.78404 19.4219 6.85546 19.2959L12.2216 9.83995C12.731 8.92112 13 7.88165 13 6.83331C13 3.34121 10.084 0.5 6.5 0.5ZM6.5 10C4.70798 10 3.25002 8.57942 3.25002 6.83335C3.25002 5.08728 4.70798 3.66669 6.5 3.66669C8.29202 3.66669 9.74998 5.08728 9.74998 6.83335C9.74998 8.57942 8.29202 10 6.5 10Z" fill="#1A1B1F"/>
</svg>
