<svg width="167" height="46" viewBox="0 0 167 46" fill="none" xmlns="http://www.w3.org/2000/svg">
<g id="Norton_Company_logo logo" clip-path="url(#clip0_12_175)">
<path id="Norton_seagull_logo" d="M40.4684 34.2025C40.8939 31.2308 55.1093 30.4851 55.9079 30.4851C58.2643 30.4851 61.5269 30.285 58.521 29.3757C55.8077 28.2995 53.5192 26.3035 52.0224 23.7078C49.7558 23.0052 47.8459 21.3983 46.7072 19.2355C43.5195 18.8289 39.0086 16.6319 37.8525 15.1103C28.8489 14.5349 19.9869 12.4928 11.588 9.05799C8.40922 7.69201 -0.919271 1.16282 0.0735762 0.815014C3.11941 -0.250687 10.3284 1.80166 13.6563 2.16839C21.0426 2.99184 28.4846 2.85808 35.9277 3.0936C36.7787 3.11967 37.7123 3.09358 38.6939 3.07045C42.27 2.98297 46.4303 2.89343 48.9798 5.28558C52.5345 8.6324 65.8183 26.4515 69.2155 24.3899C69.9573 23.9374 68.4934 23.2448 66.8208 22.6976C66.733 22.6599 66.6591 22.594 66.6097 22.5094C66.5603 22.4249 66.538 22.3261 66.546 22.2274C66.5542 22.1287 66.5922 22.0352 66.6547 21.9605C66.7171 21.8858 66.8007 21.8337 66.8933 21.8119C74.2699 20.0405 78.3638 24.6406 87.6597 25.9229C95.2753 26.9743 96.1581 31.3435 94.9154 35.7262C94.0189 38.8779 95.8487 40.6694 94.9013 42.8589C94.4146 43.9986 93.7578 43.0271 93.643 42.6906C91.8753 37.4404 89.5418 31.8944 80.1142 35.2147C76.9415 36.601 73.5657 37.4134 70.1317 37.617C68.1697 37.6633 66.2084 37.4941 64.2802 37.1124C62.0761 36.578 59.7957 36.4781 57.5564 36.8179C55.2471 37.2608 54.1745 42.8951 51.1415 45.3263C50.9519 45.4534 50.7281 45.5133 50.5033 45.4971C47.889 45.4971 40.057 40.5374 40.4684 34.2025ZM74.419 20.4876C78.9457 16.0839 83.9148 9.60345 88.0215 5.28429C90.2756 2.92158 94.6378 2.99856 98.3187 3.06921C99.3115 3.09066 100.246 3.11123 101.082 3.0839C108.504 2.84586 115.96 2.98046 123.342 2.15868C126.66 1.79069 133.879 -0.264175 136.926 0.805311C137.919 1.15311 128.59 7.68189 125.41 9.04829C117.012 12.4831 108.151 14.5253 99.1483 15.1006C98.7015 16.0725 93.8996 18.8495 90.2921 19.2221C90.2921 19.2221 88.2436 23.0589 85.0108 23.6502C84.9176 23.6668 84.8232 23.675 84.7287 23.6746C82.9203 23.6805 78.1998 21.5571 74.419 20.4876Z" fill="#2E445C"/>
</g>
<defs>
<clipPath id="clip0_12_175">
<rect width="167" height="45" fill="white" transform="translate(0 0.5)"/>
</clipPath>
</defs>
</svg>
