<svg width="20" height="20" viewBox="0 0 20 20" fill="none" xmlns="http://www.w3.org/2000/svg">
<g id="email logo" clip-path="url(#clip0_29_919)">
<path id="Vector" d="M0.0387878 14.769V3.825C0.0387878 3.81234 0.0581818 3.692 0.0969697 3.464L6.67152 8.974L0.116364 15.149C0.0646464 14.9717 0.0387878 14.845 0.0387878 14.769ZM0.911515 2.704C1.00202 2.666 1.11192 2.647 1.24121 2.647H18.9479C19.0642 2.647 19.1806 2.666 19.297 2.704L12.703 8.233L11.8303 8.917L10.1042 10.304L8.37818 8.917L7.50545 8.233L0.911515 2.704ZM0.930909 15.89L7.54424 9.677L10.1042 11.71L12.6642 9.677L19.2776 15.89C19.1741 15.928 19.0642 15.947 18.9479 15.947H1.24121C1.13778 15.947 1.03434 15.928 0.930909 15.89ZM13.537 8.974L20.0921 3.464C20.1309 3.578 20.1503 3.69834 20.1503 3.825V14.769C20.1503 14.883 20.1309 15.0097 20.0921 15.149L13.537 8.974Z" fill="black"/>
</g>
<defs>
<clipPath id="clip0_29_919">
<rect width="20" height="19" fill="white" transform="translate(0 0.5)"/>
</clipPath>
</defs>
</svg>
