<svg width="15" height="16" viewBox="0 0 15 16" fill="none" xmlns="http://www.w3.org/2000/svg">
<path id="Vector" d="M14.3081 11.3879C14.968 12.0782 15.4479 12.8887 14.338 14.2394C13.2882 15.5 12.5083 15.5 11.5784 15.5C9.29874 15.5 5.93919 12.6185 4.28942 10.9376C2.69963 9.2868 0 5.83502 0 3.40377C0 2.5033 0.389947 1.63285 1.40981 0.972513C2.45967 0.282157 3.44953 0.312173 4.25942 1.30268C4.91933 2.1131 6.68909 4.06411 5.57924 5.56488C4.82934 6.55539 4.91933 6.52537 5.63923 7.33579C6.38913 8.17623 7.16902 8.98664 8.30887 10.0072C8.93878 10.4874 8.8188 10.5775 9.95865 9.79706C11.2785 8.8966 13.6481 10.7876 14.3081 11.3879Z" fill="black"/>
</svg>
